<svg width="32" height="32" viewBox="0 0 32 32" fill="none" xmlns="http://www.w3.org/2000/svg">
  <rect width="32" height="32" rx="6" fill="#4F46E5"/>
  <rect x="6" y="6" width="3" height="3" fill="white"/>
  <rect x="6" y="10" width="3" height="3" fill="white"/>
  <rect x="6" y="14" width="3" height="3" fill="white"/>
  <rect x="10" y="6" width="3" height="3" fill="white"/>
  <rect x="14" y="6" width="3" height="3" fill="white"/>
  <rect x="10" y="14" width="3" height="3" fill="white"/>
  <rect x="14" y="10" width="3" height="3" fill="white"/>
  <rect x="6" y="19" width="3" height="3" fill="white"/>
  <rect x="6" y="23" width="3" height="3" fill="white"/>
  <rect x="10" y="23" width="3" height="3" fill="white"/>
  <rect x="14" y="19" width="3" height="3" fill="white"/>
  <rect x="14" y="23" width="3" height="3" fill="white"/>
  <rect x="19" y="6" width="7" height="3" fill="white"/>
  <rect x="19" y="10" width="3" height="3" fill="white"/>
  <rect x="23" y="10" width="3" height="3" fill="white"/>
  <rect x="19" y="14" width="7" height="3" fill="white"/>
  <rect x="19" y="19" width="7" height="7" rx="1" fill="white"/>
  <rect x="21" y="21" width="3" height="3" fill="#4F46E5"/>
</svg>
